<svg width="24" height="24"  xmlns="http://www.w3.org/2000/svg"><path fill-rule="evenodd" clip-rule="evenodd" d="M5.414 13H11v5.586l-1.293-1.293a1 1 0 0 0-1.414 1.414L12 22.414l3.707-3.707a1 1 0 1 0-1.414-1.414L13 18.586V13h5.586l-1.293 1.293a1 1 0 0 0 1.414 1.414L22.414 12l-3.707-3.707a1 1 0 1 0-1.414 1.414L18.586 11H13V5.414l1.293 1.293a1 1 0 1 0 1.414-1.414L12 1.586 8.293 5.293a1 1 0 0 0 1.414 1.414L11 5.414V11H5.414l1.293-1.293a1 1 0 0 0-1.414-1.414L1.586 12l3.707 3.707a1 1 0 1 0 1.414-1.414L5.414 13z" /></svg>