<svg width="24" height="24"  xmlns="http://www.w3.org/2000/svg"><path fill-rule="evenodd" clip-rule="evenodd" d="m12.41 3.088 10 4.5a1 1 0 0 1 0 1.824l-10 4.5a1 1 0 0 1-.82 0l-10-4.5a1 1 0 0 1 0-1.824l10-4.5a1 1 0 0 1 .82 0zM4.437 8.5 12 11.903 19.563 8.5 12 5.097 4.437 8.5z" /><path d="M4.624 15.584 12 18.904l7.376-3.32-1.727-.648a1 1 0 0 1 .702-1.872l4 1.5c.836.313.873 1.482.06 1.848l-10 4.5a1 1 0 0 1-.821 0l-10-4.5c-.814-.366-.777-1.535.059-1.848l4-1.5a1 1 0 1 1 .702 1.872l-1.727.648z" /></svg>