<svg width="24" height="24"  xmlns="http://www.w3.org/2000/svg"><path fill-rule="evenodd" clip-rule="evenodd" d="M14.39 5.575a1 1 0 0 0 0-1.414l-2.83-2.828a1 1 0 0 0-1.414 0L4.49 6.99c-8.486 8.485 3.535 20.506 12.02 12.02l5.657-5.656a1 1 0 0 0 0-1.415L19.34 9.111a1 1 0 0 0-1.414 0l-5.494 5.494c-2.992 2.991-6.527-.544-3.536-3.536l5.494-5.494zm-3.536-2.12 1.414 1.413-1.414 1.414-1.415-1.414 1.415-1.414zM8.025 6.281 9.44 7.697 7.481 9.655c-2.117 2.117-2.292 5.024-.476 6.84 1.816 1.816 4.724 1.64 6.84-.476l1.958-1.958 1.415 1.414-2.122 2.121c-6.6 6.6-15.792-2.592-9.192-9.192l2.121-2.122zm10.607 7.779 1.414-1.415-1.414-1.414-1.414 1.415 1.414 1.414z" /></svg>