<svg width="24" height="24"  xmlns="http://www.w3.org/2000/svg"><path d="M12 2a4.002 4.002 0 0 1 3.758 2.628L14 6.386V6a2 2 0 1 0-4 0v4.386l-2 2V6a4 4 0 0 1 4-4z" /><path fill-rule="evenodd" clip-rule="evenodd" d="m16 9.414 4.707-4.707a1 1 0 0 0-1.414-1.414l-16 16a1 1 0 1 0 1.414 1.414l1.847-1.847A7.972 7.972 0 0 0 11 20.938V22a1 1 0 1 0 2 0v-1.062A8.001 8.001 0 0 0 20 13v-3a1 1 0 1 0-2 0v3a6 6 0 0 1-10.03 4.445l1.416-1.417A4 4 0 0 0 16 13V9.414zm-2 2-3.192 3.192A2 2 0 0 0 14 13v-1.586z" /><path d="M6 13c0 .43.045.85.131 1.255L4.526 15.86A7.981 7.981 0 0 1 4 13v-3a1 1 0 0 1 2 0v3z" /></svg>