<svg width="78" height="24"  xmlns="http://www.w3.org/2000/svg"><path d="M20.129 0H3.871A3.871 3.871 0 0 0 0 3.871v16.258A3.871 3.871 0 0 0 3.871 24h16.258A3.871 3.871 0 0 0 24 20.129V3.871A3.871 3.871 0 0 0 20.129 0Z" fill="#FFD02F"/><path fill-rule="evenodd" clip-rule="evenodd" d="M16.207 3.75h-2.341l1.951 3.536-4.293-3.536H9.183l2.146 4.321L6.841 3.75H4.5l2.341 5.5-2.341 11h2.341L11.33 8.464 9.183 20.25h2.341l4.293-12.571-1.951 12.571h2.341L20.5 6.5l-4.293-2.75Z" /><path d="M50.768 17.674V7.435l2.528-.491V18.19l-2.528-.517Zm6.613-6.154c0-3.058 1.809-3.966 4.585-4.601l1.457-.238v2.64l-1.457.268c-1.254.238-2.057.883-2.057 2.313v6.289l-2.528-.517V11.52Zm-10.697-.372h-.005v7.043l-2.528-.517v-6.526c0-1.117-.813-1.911-2.013-1.911s-2.012.794-2.012 1.91v7.043l-2.528-.516v-6.526c0-1.117-.813-1.911-2.013-1.911-1.224 0-2.037.794-2.037 1.91v7.043l-2.528-.516V7.435l2.528-.491V8.1a3.846 3.846 0 0 1 2.999-1.395c.991 0 2.21.546 2.895 1.534.689-.898 1.839-1.484 3.251-1.504 1.78-.025 3.99 1.087 3.99 4.413Zm24.675 4.903c1.83 0 3.039-1.4 3.039-3.494 0-2.094-1.205-3.474-3.039-3.474-1.963 0-3.276 1.385-3.276 3.474 0 2.09 1.313 3.494 3.276 3.494Zm0 2.373c-3.514 0-5.864-2.358-5.864-5.872s2.35-5.847 5.864-5.847c3.386 0 5.626 2.328 5.626 5.847 0 3.52-2.24 5.872-5.626 5.872ZM52.087 5.192c-.957 0-1.597-.646-1.597-1.599s.64-1.588 1.597-1.588c.922 0 1.531.63 1.531 1.588 0 .958-.61 1.599-1.531 1.599Z" /></svg>