<svg width="24" height="24"  xmlns="http://www.w3.org/2000/svg"><path fill-rule="evenodd" clip-rule="evenodd" d="M8.258 7.147C7.37 4.576 7.702 2.59 9.737 2.035c2.186-.596 3.186 1.14 3.122 3.887-.03 1.273-.271 2.837-.682 4.519a31.135 31.135 0 0 0 3.245 4.177c1.562-.172 2.986-.206 4.14-.08 2.745.297 4.283 1.634 3.361 3.847-.88 2.111-2.885 2.23-5.142.87-.973-.587-2.035-1.46-3.103-2.526a36.997 36.997 0 0 0-5.171 1.132c-.621 1.264-1.28 2.375-1.944 3.25-1.706 2.251-3.592 3.09-5.227 1.636-1.752-1.557-.823-3.362 1.582-4.767 1.087-.635 2.528-1.241 4.156-1.77a36.617 36.617 0 0 0 1.951-5.437C9.252 9.494 8.64 8.25 8.258 7.148zm2.005-3.182c.4-.11.634.295.597 1.91a14.904 14.904 0 0 1-.184 1.902c-.21-.45-.388-.88-.528-1.283-.561-1.627-.435-2.38.115-2.53zm8.55 13.577c1.355.816 1.97.78 2.264.073.25-.6-.11-.914-1.732-1.09a13.85 13.85 0 0 0-1.993-.05c.51.43 1.003.79 1.461 1.067zM4.926 19.707c-1.415.827-1.62 1.226-1.262 1.546.478.424 1.207.1 2.305-1.35.238-.314.478-.667.717-1.054a15.03 15.03 0 0 0-1.76.858zm6.27-5.944a39.173 39.173 0 0 1-.647 1.742 40 40 0 0 1 2.509-.54 33.707 33.707 0 0 1-1.59-2.023c-.087.273-.178.547-.273.821z" /></svg>