<svg width="24" height="24" xmlns="http://www.w3.org/2000/svg">
	<path d="M6.29289 6.29289C6.68342 5.90237 7.31658 5.90237 7.70711 6.29289L17.7071 16.2929C18.0976 16.6834 18.0976 17.3166 17.7071 17.7071C17.3166 18.0976 16.6834 18.0976 16.2929 17.7071L6.29289 7.70711C5.90237 7.31658 5.90237 6.68342 6.29289 6.29289Z" />
	<path d="M15.324 11.08L16.738 9.66699C16.9256 9.47935 17.0311 9.22486 17.0311 8.9595C17.0311 8.69413 16.9256 8.43964 16.738 8.25199C16.5504 8.06435 16.2959 7.95894 16.0305 7.95894C15.7651 7.95894 15.5106 8.06435 15.323 8.25199L13.91 9.666L15.325 11.081L15.324 11.08ZM11.081 15.323L9.667 13.91L8.252 15.324C8.15909 15.4169 8.08539 15.5272 8.03511 15.6486C7.98482 15.77 7.95894 15.9001 7.95894 16.0315C7.95894 16.1629 7.98482 16.293 8.03511 16.4144C8.08539 16.5358 8.15909 16.6461 8.252 16.739C8.34491 16.8319 8.45521 16.9056 8.5766 16.9559C8.698 17.0062 8.82811 17.0321 8.9595 17.0321C9.0909 17.0321 9.221 17.0062 9.3424 16.9559C9.46379 16.9056 9.57409 16.8319 9.667 16.739L11.081 15.324V15.323Z" />
	<path d="M7.192 11.434L8.606 12.848L5.424 16.03C4.643 16.811 4.996 18.431 5.777 19.212C6.558 19.994 8.178 20.347 8.959 19.566L12.142 16.384L13.556 17.798L10.374 20.98C8.812 22.542 5.925 22.189 4.364 20.627C2.801 19.065 2.448 16.178 4.01 14.617L7.192 11.434V11.434ZM11.434 7.191L14.616 4.01C16.178 2.448 19.065 2.801 20.626 4.363C22.189 5.925 22.542 8.812 20.98 10.373L17.8 13.556L16.385 12.142L19.567 8.96C20.348 8.18 19.995 6.56 19.213 5.778C18.433 4.998 16.813 4.644 16.032 5.425L12.85 8.607L11.435 7.192L11.434 7.191Z" />
</svg>
