<svg width="24" height="24"  xmlns="http://www.w3.org/2000/svg"><path d="M11 10a1.5 1.5 0 1 1-3 0 1.5 1.5 0 0 1 3 0zm5 0a1.5 1.5 0 1 1-3 0 1.5 1.5 0 0 1 3 0zm-7.555 5.832C9.602 16.603 10.792 17 12 17c1.208 0 2.398-.397 3.555-1.168a1 1 0 0 0-1.11-1.664C13.602 14.73 12.792 15 12 15c-.792 0-1.602-.27-2.445-.832a1 1 0 0 0-1.11 1.664z" /><path fill-rule="evenodd" clip-rule="evenodd" d="M4.213 22.316a2 2 0 0 1-2.53-2.53l1.213-3.64A9.966 9.966 0 0 1 2 12C2 6.477 6.477 2 12 2s10 4.477 10 10-4.477 10-10 10c-1.45 0-2.856-.31-4.146-.897l-3.64 1.213zm4.162-3.181a8 8 0 1 0-3.511-3.511l.19.372L3.58 20.42l4.423-1.474.372.19z" /></svg>