<svg width="24" height="24" xmlns="http://www.w3.org/2000/svg"><path d="M14.8115 3.58557C15.1866 3.21063 15.6952 3 16.2255 3C16.7558 3 17.2644 3.21062 17.6395 3.58557L20.2256 6.17168C20.6005 6.54673 20.8113 7.05545 20.8113 7.58578C20.8113 8.11611 20.6007 8.62473 20.2257 8.99978L9.64661 19.5789C9.36728 19.8578 9.01109 20.0483 8.62401 20.1255L5.393 20.7723C5.07004 20.837 4.73608 20.821 4.42081 20.7256C4.10553 20.6302 3.8187 20.4584 3.58579 20.2255C3.35288 19.9926 3.18109 19.7058 3.0857 19.3905C2.99036 19.0754 2.97428 18.7416 3.03889 18.4188L3.68489 15.1868C3.68853 15.1686 3.69267 15.1505 3.6973 15.1326C3.78102 14.7666 3.96618 14.4312 4.23205 14.165L14.8115 3.58557ZM16.2255 4.99999L5.64695 15.5786C5.6444 15.5913 5.64161 15.6039 5.63857 15.6165L5.0001 18.8108L8.23221 18.1643L18.8113 7.58578L16.2255 4.99999Z" /><path d="M15.0184 12.7929L11.0184 8.7929L12.4326 7.37868L16.4326 11.3787L15.0184 12.7929Z" /></svg>
