<svg width="24" height="24" viewBox="0 0 24 12" xmlns="http://www.w3.org/2000/svg"><path d="M1.46993 0.152179C1.93824 -0.14057 2.5552 0.00175196 2.84795 0.470064L3.51995 1.54507C7.4363 7.81231 16.5636 7.81245 20.48 1.5452L21.152 0.470063C21.4448 0.0017516 22.0618 -0.14057 22.5301 0.15218C22.9984 0.44493 23.1407 1.06189 22.848 1.53021L22.176 2.60507C22.176 2.60511 22.1761 2.60502 22.176 2.60507C22.0272 2.84321 21.872 3.07395 21.7111 3.29701L23.7071 5.29303C24.0976 5.68355 24.0976 6.31672 23.7071 6.70724C23.3166 7.09777 22.6834 7.09777 22.2929 6.70724L20.4071 4.8215C19.2218 5.99312 17.8417 6.86408 16.3668 7.43437L16.9919 9.76732C17.1349 10.3007 16.8183 10.8491 16.2848 10.992C15.7513 11.135 15.203 10.8184 15.0601 10.2849L14.4472 7.99762C12.8348 8.32833 11.1648 8.32831 9.55247 7.99755L8.93997 10.2848L7.00804 9.76746L7.63285 7.43424C6.15807 6.86395 4.77809 5.99303 3.59285 4.8215L1.70711 6.70724C1.31658 7.09777 0.683417 7.09777 0.292893 6.70724C-0.097631 6.31672 -0.097631 5.68355 0.292893 5.29303L2.28891 3.29701C2.12795 3.07395 1.97286 2.84335 1.82405 2.60521C1.82402 2.60516 1.82407 2.60525 1.82405 2.60521L1.15205 1.53021C0.859297 1.06189 1.00162 0.444929 1.46993 0.152179Z"/></svg>
