<svg width="24" height="24"  xmlns="http://www.w3.org/2000/svg"><path fill-rule="evenodd" clip-rule="evenodd" d="M12 8c-2.206 0-4 1.794-4 4 0 2.207 1.794 4 4 4 2.207 0 4-1.793 4-4 0-2.206-1.793-4-4-4Zm-2 4c0-1.102.898-2 2-2 1.102 0 2 .898 2 2 0 1.102-.898 2-2 2-1.102 0-2-.898-2-2Z" /><path fill-rule="evenodd" clip-rule="evenodd" d="M12 4C8.607 4 5.865 5.971 4.043 7.793a20.35 20.35 0 0 0-2.704 3.372 11.959 11.959 0 0 0-.19.31l-.012.02-.003.005-.002.003L.848 12l.284.496L2 12c-.868.496-.867.498-.867.498v.002l.004.006.012.02a6.91 6.91 0 0 0 .19.31 20.352 20.352 0 0 0 2.704 3.372C5.865 18.027 8.607 20 12 20s6.135-1.971 7.957-3.793a20.348 20.348 0 0 0 2.704-3.372 11.894 11.894 0 0 0 .19-.31l.012-.02.003-.005.002-.003.284-.497-.284-.496v.92-.922l-.002-.002-.003-.006-.012-.02a18.136 18.136 0 0 0-.756-1.15 20.346 20.346 0 0 0-2.138-2.531C18.135 5.97 15.393 4 12 4ZM2 12l-.868-.497L2 12Zm1.533.512A17.114 17.114 0 0 1 3.18 12a18.346 18.346 0 0 1 2.277-2.793C7.135 7.53 9.393 6 12 6s4.865 1.529 6.543 3.207A18.34 18.34 0 0 1 20.82 12a18.342 18.342 0 0 1-2.277 2.793C16.865 16.47 14.607 18 12 18s-4.865-1.529-6.543-3.207a18.347 18.347 0 0 1-1.924-2.28Z" /></svg>