<svg width="48" height="24"  xmlns="http://www.w3.org/2000/svg"><path d="M20.768 17.047v-9.83l2.528-.471v10.797l-2.528-.496Zm6.613-5.908c0-2.935 1.809-3.807 4.585-4.417l1.457-.229v2.535l-1.457.257c-1.254.23-2.057.849-2.057 2.22v6.038l-2.528-.496V11.14Zm-10.697-.357h-.005v6.76l-2.528-.495v-6.265c0-1.072-.813-1.835-2.013-1.835s-2.012.763-2.012 1.835v6.76l-2.528-.495v-6.265c0-1.072-.813-1.835-2.013-1.835-1.224 0-2.037.763-2.037 1.835v6.76l-2.528-.495v-9.83l2.528-.471v1.11c.704-.824 1.78-1.339 2.999-1.339.991 0 2.21.524 2.895 1.472.689-.862 1.839-1.424 3.251-1.443 1.78-.024 3.99 1.043 3.99 4.236Zm24.675 4.707c1.83 0 3.039-1.344 3.039-3.354s-1.205-3.336-3.039-3.336c-1.963 0-3.276 1.33-3.276 3.336s1.313 3.354 3.276 3.354Zm0 2.278c-3.514 0-5.864-2.263-5.864-5.637 0-3.373 2.35-5.613 5.864-5.613 3.386 0 5.626 2.235 5.626 5.613 0 3.378-2.24 5.637-5.626 5.637ZM22.087 5.064c-.957 0-1.596-.62-1.596-1.534 0-.915.639-1.525 1.596-1.525.922 0 1.531.605 1.531 1.525 0 .92-.61 1.534-1.531 1.534Z" /></svg>