<svg width="24" height="24"  xmlns="http://www.w3.org/2000/svg"><path fill-rule="evenodd" clip-rule="evenodd" d="M6.735 5.507A3 3 0 0 1 9.695 3h4.61a3 3 0 0 1 2.96 2.507l.082.493H20a3 3 0 0 1 3 3v9a3 3 0 0 1-3 3H4a3 3 0 0 1-3-3V9a3 3 0 0 1 3-3h2.653l.082-.493zM9.695 5a1 1 0 0 0-.987.836l-.082.493A2 2 0 0 1 6.653 8H4a1 1 0 0 0-1 1v9a1 1 0 0 0 1 1h16a1 1 0 0 0 1-1V9a1 1 0 0 0-1-1h-2.653a2 2 0 0 1-1.973-1.671l-.082-.493A1 1 0 0 0 14.306 5H9.694z" /><path fill-rule="evenodd" clip-rule="evenodd" d="M7 13a5 5 0 1 1 10 0 5 5 0 0 1-10 0zm5-3a3 3 0 1 0 0 6 3 3 0 0 0 0-6z" /></svg>