<svg width="24" height="24"  xmlns="http://www.w3.org/2000/svg"><path fill-rule="evenodd" clip-rule="evenodd" d="M2 12c0 5.523 4.477 10 10 10s10-4.477 10-10S17.523 2 12 2 2 6.477 2 12zm11.668-4C13.255 5.608 12.54 4 12 4s-1.255 1.608-1.668 4h3.335zM8.289 8c.21-1.352.53-2.55.95-3.51A8.027 8.027 0 0 0 5.07 8h3.22zM8 12c0 .685.023 1.354.068 2H4.252A8.015 8.015 0 0 1 4 12c0-.69.088-1.36.252-2h3.816A28.805 28.805 0 0 0 8 12zm.289 4c.21 1.352.53 2.55.95 3.51A8.027 8.027 0 0 1 5.07 16h3.22zM20 12a8 8 0 0 0-.252-2h-3.816c.045.646.068 1.315.068 2s-.023 1.354-.068 2h3.816A8 8 0 0 0 20 12zm-5.24 7.51c.42-.96.741-2.158.951-3.51h3.219a8.027 8.027 0 0 1-4.17 3.51zM13.92 14a24.62 24.62 0 0 0 0-4h-3.84a24.62 24.62 0 0 0 0 4h3.838zm-.252 2c-.412 2.392-1.126 4-1.667 4-.54 0-1.255-1.608-1.668-4h3.335zm2.044-8c-.21-1.352-.53-2.55-.95-3.51A8.026 8.026 0 0 1 18.93 8h-3.22z" /></svg>