<svg width="24" height="24"  xmlns="http://www.w3.org/2000/svg"><path fill-rule="evenodd" clip-rule="evenodd" d="M7.586 16H3a1 1 0 0 1-1-1V9a1 1 0 0 1 1-1h4.586l5.707-5.707C13.923 1.663 15 2.109 15 3v18c0 .89-1.077 1.337-1.707.707L7.586 16zM4 14h4a1 1 0 0 1 .707.293L13 18.586V5.414L8.707 9.707A1 1 0 0 1 8 10H4v4zm13.707-5.707L20 10.586l2.293-2.293a1 1 0 1 1 1.414 1.414L21.414 12l2.293 2.293a1 1 0 0 1-1.414 1.414L20 13.414l-2.293 2.293a1 1 0 0 1-1.414-1.414L18.586 12l-2.293-2.293a1 1 0 0 1 1.414-1.414z" /></svg>