<svg width="24" height="24"  xmlns="http://www.w3.org/2000/svg"><path fill-rule="evenodd" clip-rule="evenodd" d="M12 8a4 4 0 1 1-8 0 4 4 0 0 1 8 0zm5.5 6a3.5 3.5 0 1 0 0-7 3.5 3.5 0 0 0 0 7zm4.508 6.124a1 1 0 1 0 1.984-.248l-.171-1.372A4 4 0 0 0 19.85 15h-4.04c.349.604.597 1.278.719 2h3.324a2 2 0 0 1 1.984 1.752l.172 1.372zm-7.994.04a1 1 0 0 0 1.973-.328l-.443-2.658A5 5 0 0 0 10.612 13H5.389a5 5 0 0 0-4.932 4.178l-.443 2.658a1 1 0 1 0 1.973.328l.442-2.657A3 3 0 0 1 5.39 15h5.223a3 3 0 0 1 2.959 2.507l.443 2.657zM8 10a2 2 0 1 1 0-4 2 2 0 0 1 0 4zm8 .5a1.5 1.5 0 1 0 3 0 1.5 1.5 0 0 0-3 0z" /></svg>