<svg width="24" height="24"  xmlns="http://www.w3.org/2000/svg"><path d="M16.596 13.768a1 1 0 0 1-1.414-1.415l3.889-3.889c.781-.78.427-2.4-.354-3.182-.78-.78-2.4-1.134-3.181-.353l-3.89 3.889a1 1 0 1 1-1.414-1.414l3.89-3.89c1.561-1.561 4.448-1.208 6.01.354 1.562 1.562 1.915 4.449.353 6.01l-3.889 3.89z" /><path d="M14.828 7.757a1 1 0 1 1 1.415 1.415l-7.071 7.07a1 1 0 1 1-1.415-1.414l7.071-7.07z" /><path d="M8.464 10.586a1 1 0 0 0-1.414 0L3.515 14.12c-1.562 1.562-1.209 4.449.353 6.01 1.562 1.563 4.449 1.916 6.01.354l3.536-3.535A1 1 0 0 0 12 15.536L8.464 19.07c-.78.781-2.4.428-3.182-.354-.78-.78-1.134-2.4-.353-3.181L8.464 12a1 1 0 0 0 0-1.414z" /></svg>