<svg width="24" height="24"  xmlns="http://www.w3.org/2000/svg"><path fill-rule="evenodd" clip-rule="evenodd" d="M11.5298 3.1448C11.5298 3.14482 11.5298 3.14477 11.5298 3.1448L9.7643 8H14.2357L12.4702 3.1448C12.4702 3.14477 12.4702 3.14482 12.4702 3.1448C12.3104 2.70549 11.6896 2.70549 11.5298 3.1448ZM14.3498 2.4612C13.5516 0.266597 10.4484 0.266597 9.65023 2.4612L4 17.9998V24C4 24.5304 4.21071 25.0391 4.58579 25.4142C4.96086 25.7893 5.46957 26 6 26H18C18.5304 26 19.0391 25.7893 19.4142 25.4142C19.7893 25.0391 20 24.5304 20 24V17.9998L14.3498 2.4612ZM14.9629 10H9.03705L6 18.3522V24H18V18.3522L14.9629 10Z"/></svg>
